<svg xmlns="http://www.w3.org/2000/svg" viewBox="0 0 1200 760"><defs><linearGradient id="bg" x1="0" x2="1" y1="0" y2="1"><stop stop-color="#0a111d"/><stop offset="1" stop-color="#11192a"/></linearGradient><linearGradient id="a" x1="0" x2="1"><stop stop-color="#7c8cff"/><stop offset="1" stop-color="#8cd8ff"/></linearGradient></defs><rect width="1200" height="760" rx="36" fill="url(#bg)"/><text x="66" y="78" fill="#8c98ad" font-family="ui-monospace,monospace" font-size="20" letter-spacing="3">RECRUITING PRODUCT WORKFLOW</text><g font-family="Arial,Helvetica,sans-serif"><rect x="66" y="135" width="1068" height="555" rx="30" fill="#0d1623" stroke="#26344b"/><rect x="66" y="135" width="1068" height="66" rx="30" fill="#101a29"/><circle cx="101" cy="168" r="7" fill="#506079"/><circle cx="126" cy="168" r="7" fill="#506079"/><circle cx="151" cy="168" r="7" fill="#506079"/><rect x="98" y="238" width="250" height="410" rx="20" fill="#101a28" stroke="#223147"/><text x="126" y="280" fill="#fff" font-size="22" font-weight="700">Candidate pipeline</text><g fill="#26364d"><rect x="126" y="310" width="180" height="10" rx="5"/><rect x="126" y="344" width="145" height="10" rx="5"/><rect x="126" y="378" width="196" height="10" rx="5"/></g><g><rect x="126" y="430" width="190" height="70" rx="15" fill="#131f30" stroke="#6071db"/><circle cx="157" cy="465" r="17" fill="#6e7ee7"/><rect x="186" y="449" width="98" height="8" rx="4" fill="#dce3f7"/><rect x="186" y="468" width="72" height="7" rx="4" fill="#66748d"/><rect x="126" y="516" width="190" height="70" rx="15" fill="#131f30" stroke="#26364d"/><circle cx="157" cy="551" r="17" fill="#526078"/><rect x="186" y="535" width="98" height="8" rx="4" fill="#dce3f7"/><rect x="186" y="554" width="72" height="7" rx="4" fill="#66748d"/></g><rect x="382" y="238" width="720" height="194" rx="20" fill="#101a28" stroke="#223147"/><text x="410" y="278" fill="#fff" font-size="22" font-weight="700">Matching & applicant tracking</text><g><rect x="410" y="310" width="205" height="76" rx="15" fill="#131f30"/><text x="432" y="340" fill="#8d99ad" font-size="14">Profile match</text><text x="432" y="372" fill="#fff" font-size="28" font-weight="700">92%</text><rect x="640" y="310" width="205" height="76" rx="15" fill="#131f30"/><text x="662" y="340" fill="#8d99ad" font-size="14">Active users</text><text x="662" y="372" fill="#fff" font-size="28" font-weight="700">5,000+</text><rect x="870" y="310" width="205" height="76" rx="15" fill="#131f30"/><text x="892" y="340" fill="#8d99ad" font-size="14">Realtime</text><text x="892" y="372" fill="#fff" font-size="28" font-weight="700">Chat</text></g><rect x="382" y="454" width="720" height="194" rx="20" fill="#101a28" stroke="#223147"/><text x="410" y="494" fill="#fff" font-size="22" font-weight="700">Workflow state</text><g><rect x="410" y="530" width="145" height="38" rx="19" fill="#17243a" stroke="#6071db"/><text x="447" y="555" fill="#aeb8ff" font-size="14">Applied</text><rect x="586" y="530" width="145" height="38" rx="19" fill="#17243a" stroke="#6071db"/><text x="617" y="555" fill="#aeb8ff" font-size="14">Screened</text><rect x="762" y="530" width="145" height="38" rx="19" fill="#17243a" stroke="#6071db"/><text x="797" y="555" fill="#aeb8ff" font-size="14">Interview</text><rect x="938" y="530" width="130" height="38" rx="19" fill="#17243a" stroke="#6071db"/><text x="978" y="555" fill="#aeb8ff" font-size="14">Offer</text><g stroke="url(#a)" stroke-width="4"><path d="M555 549H578"/><path d="M731 549H754"/><path d="M907 549H930"/></g></g></g></svg>